<svg width="207" height="283" viewBox="0 0 207 283" fill="none" xmlns="http://www.w3.org/2000/svg">
<g filter="url(#filter0_d)">
<path d="M34.8288 50C26.4288 102.8 48.9955 140 61.3288 152C83.9955 164 123.029 175.4 97.8289 125C72.6289 74.6 45.3288 54 34.8288 50Z" fill="#F7F7F7"/>
<path d="M34.8288 50C26.4288 102.8 48.9955 140 61.3288 152C83.9955 164 123.029 175.4 97.8289 125C72.6289 74.6 45.3288 54 34.8288 50Z" stroke="white"/>
</g>
<g filter="url(#filter1_d)">
<path d="M148.152 33.6439C119.521 60.1942 112.716 99.9844 112.892 116.561C113.59 140.314 119.448 177.198 137.296 134.711C155.144 92.2246 151.97 49.6302 148.152 33.6439Z" fill="#F7F7F7"/>
<path d="M148.152 33.6439C119.521 60.1942 112.716 99.9844 112.892 116.561C113.59 140.314 119.448 177.198 137.296 134.711C155.144 92.2246 151.97 49.6302 148.152 33.6439Z" stroke="white"/>
</g>
<g filter="url(#filter2_d)">
<path d="M86.0001 241C80.8001 230.6 88.7162 206.196 98.8829 204.196C104.716 201.03 116.383 196.596 116.383 204.196C116.383 213.696 113 223 110 229.5C107 236 92.5001 254 86.0001 241Z" fill="#F7F7F7"/>
<path d="M86.0001 241C80.8001 230.6 88.7162 206.196 98.8829 204.196C104.716 201.03 116.383 196.596 116.383 204.196C116.383 213.696 113 223 110 229.5C107 236 92.5001 254 86.0001 241Z" stroke="white"/>
</g>
<g filter="url(#filter3_d)">
<path d="M162.268 229.478C162.537 218.232 148.391 197.16 140.241 197.948C134.875 196.483 124.792 195.357 127.386 202.571C130.629 211.588 136.29 219.525 140.713 224.903C145.136 230.28 161.931 243.535 162.268 229.478Z" fill="#F7F7F7"/>
<path d="M162.268 229.478C162.537 218.232 148.391 197.16 140.241 197.948C134.875 196.483 124.792 195.357 127.386 202.571C130.629 211.588 136.29 219.525 140.713 224.903C145.136 230.28 161.931 243.535 162.268 229.478Z" stroke="white"/>
</g>
<g filter="url(#filter4_d)">
<circle cx="118" cy="166" r="50" fill="#E4FE48"/>
</g>
<defs>
<filter id="filter0_d" x="0.5" y="21.3137" width="138.004" height="177.468" filterUnits="userSpaceOnUse" color-interpolation-filters="sRGB">
<feFlood flood-opacity="0" result="BackgroundImageFix"/>
<feColorMatrix in="SourceAlpha" type="matrix" values="0 0 0 0 0 0 0 0 0 0 0 0 0 0 0 0 0 0 127 0"/>
<feOffset dy="4"/>
<feGaussianBlur stdDeviation="16"/>
<feColorMatrix type="matrix" values="0 0 0 0 0.964706 0 0 0 0 0.968627 0 0 0 0 0.929412 0 0 0 1 0"/>
<feBlend mode="normal" in2="BackgroundImageFix" result="effect1_dropShadow"/>
<feBlend mode="normal" in="SourceGraphic" in2="effect1_dropShadow" result="shape"/>
</filter>
<filter id="filter1_d" x="73.4265" y="0.950165" width="117.531" height="192.329" filterUnits="userSpaceOnUse" color-interpolation-filters="sRGB">
<feFlood flood-opacity="0" result="BackgroundImageFix"/>
<feColorMatrix in="SourceAlpha" type="matrix" values="0 0 0 0 0 0 0 0 0 0 0 0 0 0 0 0 0 0 127 0"/>
<feOffset dy="4"/>
<feGaussianBlur stdDeviation="16"/>
<feColorMatrix type="matrix" values="0 0 0 0 0.964706 0 0 0 0 0.968627 0 0 0 0 0.929412 0 0 0 1 0"/>
<feBlend mode="normal" in2="BackgroundImageFix" result="effect1_dropShadow"/>
<feBlend mode="normal" in="SourceGraphic" in2="effect1_dropShadow" result="shape"/>
</filter>
<filter id="filter2_d" x="51.8567" y="171.5" width="97.0262" height="110.602" filterUnits="userSpaceOnUse" color-interpolation-filters="sRGB">
<feFlood flood-opacity="0" result="BackgroundImageFix"/>
<feColorMatrix in="SourceAlpha" type="matrix" values="0 0 0 0 0 0 0 0 0 0 0 0 0 0 0 0 0 0 127 0"/>
<feOffset dy="4"/>
<feGaussianBlur stdDeviation="16"/>
<feColorMatrix type="matrix" values="0 0 0 0 0.964706 0 0 0 0 0.968627 0 0 0 0 0.929412 0 0 0 1 0"/>
<feBlend mode="normal" in2="BackgroundImageFix" result="effect1_dropShadow"/>
<feBlend mode="normal" in="SourceGraphic" in2="effect1_dropShadow" result="shape"/>
</filter>
<filter id="filter3_d" x="93.3137" y="161.487" width="104.372" height="117.026" filterUnits="userSpaceOnUse" color-interpolation-filters="sRGB">
<feFlood flood-opacity="0" result="BackgroundImageFix"/>
<feColorMatrix in="SourceAlpha" type="matrix" values="0 0 0 0 0 0 0 0 0 0 0 0 0 0 0 0 0 0 127 0"/>
<feOffset dy="4"/>
<feGaussianBlur stdDeviation="16"/>
<feColorMatrix type="matrix" values="0 0 0 0 0.964706 0 0 0 0 0.968627 0 0 0 0 0.929412 0 0 0 1 0"/>
<feBlend mode="normal" in2="BackgroundImageFix" result="effect1_dropShadow"/>
<feBlend mode="normal" in="SourceGraphic" in2="effect1_dropShadow" result="shape"/>
</filter>
<filter id="filter4_d" x="31" y="78" width="176" height="176" filterUnits="userSpaceOnUse" color-interpolation-filters="sRGB">
<feFlood flood-opacity="0" result="BackgroundImageFix"/>
<feColorMatrix in="SourceAlpha" type="matrix" values="0 0 0 0 0 0 0 0 0 0 0 0 0 0 0 0 0 0 127 0"/>
<feOffset dx="1"/>
<feGaussianBlur stdDeviation="19"/>
<feColorMatrix type="matrix" values="0 0 0 0 0.894118 0 0 0 0 0.996078 0 0 0 0 0.282353 0 0 0 1 0"/>
<feBlend mode="normal" in2="BackgroundImageFix" result="effect1_dropShadow"/>
<feBlend mode="normal" in="SourceGraphic" in2="effect1_dropShadow" result="shape"/>
</filter>
</defs>
</svg>
